<svg width="36" height="39" viewBox="0 0 36 39" fill="none" xmlns="http://www.w3.org/2000/svg">
<path d="M8.97 27.8852C10.44 26.8081 11.8983 25.9818 13.345 25.4065C14.7917 24.8312 16.3433 24.5436 18 24.5436C19.6567 24.5436 21.2142 24.8312 22.6725 25.4065C24.1308 25.9818 25.595 26.8081 27.065 27.8852C28.0917 26.5633 28.8208 25.2291 29.2525 23.8826C29.6842 22.5362 29.9 21.1163 29.9 19.6229C29.9 16.0732 28.7625 13.1049 26.4875 10.718C24.2125 8.33114 21.3833 7.1377 18 7.1377C14.6167 7.1377 11.7875 8.33114 9.5125 10.718C7.2375 13.1049 6.1 16.0732 6.1 19.6229C6.1 21.1163 6.32167 22.5362 6.765 23.8826C7.20833 25.2291 7.94333 26.5633 8.97 27.8852ZM18 20.7246C16.6467 20.7246 15.5092 20.2411 14.5875 19.2741C13.6658 18.3071 13.205 17.1137 13.205 15.6938C13.205 14.2739 13.6658 13.0804 14.5875 12.1134C15.5092 11.1464 16.6467 10.6629 18 10.6629C19.3533 10.6629 20.4908 11.1464 21.4125 12.1134C22.3342 13.0804 22.795 14.2739 22.795 15.6938C22.795 17.1137 22.3342 18.3071 21.4125 19.2741C20.4908 20.2411 19.3533 20.7246 18 20.7246ZM18 34.3115C16.0867 34.3115 14.2783 33.9259 12.575 33.1547C10.8717 32.3836 9.38417 31.3309 8.1125 29.9967C6.84083 28.6625 5.8375 27.1019 5.1025 25.3147C4.3675 23.5276 4 21.6304 4 19.6229C4 17.591 4.3675 15.6876 5.1025 13.9128C5.8375 12.1379 6.84083 10.5834 8.1125 9.24917C9.38417 7.91496 10.8717 6.86229 12.575 6.09114C14.2783 5.31999 16.0867 4.93442 18 4.93442C19.9367 4.93442 21.7508 5.31999 23.4425 6.09114C25.1342 6.86229 26.6158 7.91496 27.8875 9.24917C29.1592 10.5834 30.1625 12.1379 30.8975 13.9128C31.6325 15.6876 32 17.591 32 19.6229C32 21.6304 31.6325 23.5276 30.8975 25.3147C30.1625 27.1019 29.1592 28.6625 27.8875 29.9967C26.6158 31.3309 25.1342 32.3836 23.4425 33.1547C21.7508 33.9259 19.9367 34.3115 18 34.3115ZM18 32.1082C19.2833 32.1082 20.5375 31.9123 21.7625 31.5206C22.9875 31.129 24.195 30.4435 25.385 29.4643C24.195 28.5829 22.9817 27.9097 21.745 27.4446C20.5083 26.9794 19.26 26.7469 18 26.7469C16.74 26.7469 15.4917 26.9794 14.255 27.4446C13.0183 27.9097 11.805 28.5829 10.615 29.4643C11.805 30.4435 13.0125 31.129 14.2375 31.5206C15.4625 31.9123 16.7167 32.1082 18 32.1082ZM18 18.5213C18.7933 18.5213 19.4408 18.2581 19.9425 17.7318C20.4442 17.2055 20.695 16.5261 20.695 15.6938C20.695 14.8614 20.4442 14.1821 19.9425 13.6557C19.4408 13.1294 18.7933 12.8662 18 12.8662C17.2067 12.8662 16.5592 13.1294 16.0575 13.6557C15.5558 14.1821 15.305 14.8614 15.305 15.6938C15.305 16.5261 15.5558 17.2055 16.0575 17.7318C16.5592 18.2581 17.2067 18.5213 18 18.5213Z" fill="#CECECE"/>
</svg>
