<svg width="36" height="36" viewBox="0 0 36 36" fill="none" xmlns="http://www.w3.org/2000/svg">
<path d="M16.0151 30.5457C15.6002 30.5457 15.2436 30.4031 14.9454 30.1178C14.6471 29.8326 14.498 29.4695 14.498 29.0286V19.8094L5.31768 8.10059C4.95462 7.68566 4.90275 7.23182 5.16208 6.73909C5.42141 6.24636 5.81041 6 6.32907 6H28.6575C29.2021 6 29.5976 6.24636 29.844 6.73909C30.0903 7.23182 30.045 7.68566 29.7078 8.10059L20.5275 19.8094V29.0286C20.5275 29.4695 20.3784 29.8326 20.0801 30.1178C19.7819 30.4031 19.4124 30.5457 18.9715 30.5457H16.0151ZM17.4933 20.0039L26.7903 8.25619H8.23516L17.4933 20.0039Z" fill="#8B8B8B"/>
</svg>
