<svg width="36" height="39" viewBox="0 0 36 39" fill="none" xmlns="http://www.w3.org/2000/svg">
<path d="M18 24.2966C19.2303 24.2966 20.2803 23.8403 21.15 22.9279C22.0197 22.0154 22.4545 20.9138 22.4545 19.6229C22.4545 18.3321 22.0197 17.2305 21.15 16.318C20.2803 15.4056 19.2303 14.9493 18 14.9493C16.7697 14.9493 15.7197 15.4056 14.85 16.318C13.9803 17.2305 13.5455 18.3321 13.5455 19.6229C13.5455 20.9138 13.9803 22.0154 14.85 22.9279C15.7197 23.8403 16.7697 24.2966 18 24.2966ZM18 26.2995C16.2394 26.2995 14.7386 25.6486 13.4977 24.3466C12.2568 23.0447 11.6364 21.4701 11.6364 19.6229C11.6364 17.7757 12.2568 16.2012 13.4977 14.8992C14.7386 13.5973 16.2394 12.9463 18 12.9463C19.7606 12.9463 21.2614 13.5973 22.5023 14.8992C23.7432 16.2012 24.3636 17.7757 24.3636 19.6229C24.3636 21.4701 23.7432 23.0447 22.5023 24.3466C21.2614 25.6486 19.7606 26.2995 18 26.2995ZM4.95455 20.6244C4.67879 20.6244 4.45076 20.5298 4.27045 20.3407C4.09015 20.1515 4 19.9123 4 19.6229C4 19.3336 4.09015 19.0944 4.27045 18.9052C4.45076 18.716 4.67879 18.6215 4.95455 18.6215H8.13636C8.41212 18.6215 8.64015 18.716 8.82045 18.9052C9.00076 19.0944 9.09091 19.3336 9.09091 19.6229C9.09091 19.9123 9.00076 20.1515 8.82045 20.3407C8.64015 20.5298 8.41212 20.6244 8.13636 20.6244H4.95455ZM27.8636 20.6244C27.5879 20.6244 27.3598 20.5298 27.1795 20.3407C26.9992 20.1515 26.9091 19.9123 26.9091 19.6229C26.9091 19.3336 26.9992 19.0944 27.1795 18.9052C27.3598 18.716 27.5879 18.6215 27.8636 18.6215H31.0455C31.3212 18.6215 31.5492 18.716 31.7295 18.9052C31.9098 19.0944 32 19.3336 32 19.6229C32 19.9123 31.9098 20.1515 31.7295 20.3407C31.5492 20.5298 31.3212 20.6244 31.0455 20.6244H27.8636ZM18 10.2757C17.7242 10.2757 17.4962 10.1811 17.3159 9.99194C17.1356 9.80277 17.0455 9.56353 17.0455 9.27421V5.93591C17.0455 5.64659 17.1356 5.40734 17.3159 5.21817C17.4962 5.029 17.7242 4.93442 18 4.93442C18.2758 4.93442 18.5038 5.029 18.6841 5.21817C18.8644 5.40734 18.9545 5.64659 18.9545 5.93591V9.27421C18.9545 9.56353 18.8644 9.80277 18.6841 9.99194C18.5038 10.1811 18.2758 10.2757 18 10.2757ZM18 34.3115C17.7242 34.3115 17.4962 34.2169 17.3159 34.0277C17.1356 33.8385 17.0455 33.5993 17.0455 33.31V29.9717C17.0455 29.6824 17.1356 29.4431 17.3159 29.2539C17.4962 29.0648 17.7242 28.9702 18 28.9702C18.2758 28.9702 18.5038 29.0648 18.6841 29.2539C18.8644 29.4431 18.9545 29.6824 18.9545 29.9717V33.31C18.9545 33.5993 18.8644 33.8385 18.6841 34.0277C18.5038 34.2169 18.2758 34.3115 18 34.3115ZM10.3636 13.0131L8.55 11.1437C8.35909 10.9434 8.26894 10.7041 8.27955 10.4259C8.29015 10.1477 8.3803 9.90849 8.55 9.70819C8.74091 9.50789 8.96894 9.40774 9.23409 9.40774C9.49924 9.40774 9.72727 9.50789 9.91818 9.70819L11.7 11.611C11.8697 11.8113 11.9545 12.045 11.9545 12.3121C11.9545 12.5791 11.8697 12.8017 11.7 12.9797C11.5303 13.18 11.3129 13.2802 11.0477 13.2802C10.7826 13.2802 10.5545 13.1911 10.3636 13.0131ZM26.0818 29.5377L24.3 27.6349C24.1303 27.4346 24.0455 27.1953 24.0455 26.9171C24.0455 26.6389 24.1409 26.4108 24.3318 26.2328C24.5015 26.0325 24.7136 25.9323 24.9682 25.9323C25.2227 25.9323 25.4455 26.0325 25.6364 26.2328L27.45 28.1022C27.6409 28.3025 27.7311 28.5418 27.7205 28.82C27.7098 29.0982 27.6197 29.3374 27.45 29.5377C27.2591 29.738 27.0311 29.8381 26.7659 29.8381C26.5008 29.8381 26.2727 29.738 26.0818 29.5377ZM24.3 13.0131C24.1091 12.8128 24.0136 12.5791 24.0136 12.3121C24.0136 12.045 24.1091 11.8113 24.3 11.611L26.0818 9.70819C26.2727 9.50789 26.5008 9.41331 26.7659 9.42443C27.0311 9.43556 27.2591 9.53015 27.45 9.70819C27.6409 9.90849 27.7364 10.1477 27.7364 10.4259C27.7364 10.7041 27.6409 10.9434 27.45 11.1437L25.6364 13.0131C25.4667 13.1911 25.2492 13.2802 24.9841 13.2802C24.7189 13.2802 24.4909 13.1911 24.3 13.0131ZM8.55 29.5377C8.35909 29.3374 8.26364 29.0982 8.26364 28.82C8.26364 28.5418 8.35909 28.3025 8.55 28.1022L10.3636 26.2328C10.5545 26.0325 10.7773 25.9323 11.0318 25.9323C11.2864 25.9323 11.5091 26.0325 11.7 26.2328C11.8909 26.4331 11.9864 26.6668 11.9864 26.9338C11.9864 27.2009 11.8909 27.4346 11.7 27.6349L9.91818 29.5377C9.72727 29.738 9.49924 29.8326 9.23409 29.8215C8.96894 29.8103 8.74091 29.7157 8.55 29.5377Z" fill="#CECECE"/>
</svg>
