<svg width="25" height="13" viewBox="0 0 25 13" fill="none" xmlns="http://www.w3.org/2000/svg">
<path d="M11.5625 12.75H6.25C4.52083 12.75 3.04688 12.1406 1.82813 10.9219C0.609375 9.70312 0 8.22917 0 6.5C0 4.77083 0.609375 3.29687 1.82813 2.07812C3.04688 0.859375 4.52083 0.25 6.25 0.25H11.5625V2.125H6.25C5.04167 2.125 4.01042 2.55208 3.15625 3.40625C2.30208 4.26042 1.875 5.29167 1.875 6.5C1.875 7.70833 2.30208 8.73958 3.15625 9.59375C4.01042 10.4479 5.04167 10.875 6.25 10.875H11.5625V12.75ZM7.65625 7.4375V5.5625H17.3438V7.4375H7.65625ZM13.4375 12.75V10.875H18.75C19.9583 10.875 20.9896 10.4479 21.8438 9.59375C22.6979 8.73958 23.125 7.70833 23.125 6.5C23.125 5.29167 22.6979 4.26042 21.8438 3.40625C20.9896 2.55208 19.9583 2.125 18.75 2.125H13.4375V0.25H18.75C20.4792 0.25 21.9531 0.859375 23.1719 2.07812C24.3906 3.29687 25 4.77083 25 6.5C25 8.22917 24.3906 9.70312 23.1719 10.9219C21.9531 12.1406 20.4792 12.75 18.75 12.75H13.4375Z" fill="#CECECE"/>
</svg>
