<svg width="36" height="37" viewBox="0 0 36 37" fill="none" xmlns="http://www.w3.org/2000/svg">
<path d="M24.1875 24.3969C23.9625 24.1656 23.85 23.883 23.85 23.549C23.85 23.2149 23.9625 22.9451 24.1875 22.7396L27.1875 19.6562H15.1875C14.8625 19.6562 14.5937 19.547 14.3812 19.3286C14.1687 19.1102 14.0625 18.834 14.0625 18.5C14.0625 18.166 14.1687 17.8898 14.3812 17.6714C14.5937 17.453 14.8625 17.3437 15.1875 17.3437H27.1125L24.075 14.2219C23.875 14.0163 23.775 13.753 23.775 13.4318C23.775 13.1106 23.8875 12.8344 24.1125 12.6031C24.3375 12.3719 24.6062 12.2562 24.9187 12.2562C25.2312 12.2562 25.5 12.3719 25.725 12.6031L30.7125 17.7292C30.8375 17.8576 30.925 17.9861 30.975 18.1146C31.025 18.2431 31.05 18.3844 31.05 18.5385C31.05 18.6927 31.025 18.834 30.975 18.9625C30.925 19.091 30.8375 19.2194 30.7125 19.3479L25.7625 24.4354C25.5625 24.641 25.3063 24.7437 24.9938 24.7437C24.6813 24.7437 24.4125 24.6281 24.1875 24.3969V24.3969ZM6.75 32.375C6.15 32.375 5.625 32.1437 5.175 31.6812C4.725 31.2187 4.5 30.6792 4.5 30.0625V6.9375C4.5 6.32083 4.725 5.78125 5.175 5.31875C5.625 4.85625 6.15 4.625 6.75 4.625H16.5375C16.8625 4.625 17.1313 4.7342 17.3438 4.9526C17.5562 5.17101 17.6625 5.44722 17.6625 5.78125C17.6625 6.11528 17.5562 6.39149 17.3438 6.6099C17.1313 6.8283 16.8625 6.9375 16.5375 6.9375H6.75V30.0625H16.5375C16.8625 30.0625 17.1313 30.1717 17.3438 30.3901C17.5562 30.6085 17.6625 30.8847 17.6625 31.2187C17.6625 31.5528 17.5562 31.829 17.3438 32.0474C17.1313 32.2658 16.8625 32.375 16.5375 32.375H6.75Z" fill="#CECECE"/>
</svg>
