<svg width="24" height="21" viewBox="0 0 24 21" fill="none" xmlns="http://www.w3.org/2000/svg">
<path d="M12.4317 18.2437C12.0309 18.2437 11.6902 18.1161 11.4096 17.8609C11.1291 17.6057 10.9888 17.3031 10.9888 16.9531C10.9888 16.6031 11.1291 16.2969 11.4096 16.0344C11.6902 15.7719 12.0229 15.6406 12.4076 15.6406C12.8085 15.6406 13.1451 15.7719 13.4177 16.0344C13.6902 16.2969 13.8265 16.6031 13.8265 16.9531C13.8265 17.3031 13.6902 17.6057 13.4177 17.8609C13.1451 18.1161 12.8165 18.2437 12.4317 18.2437ZM12.4317 11.7906C12.0309 11.7906 11.6902 11.663 11.4096 11.4078C11.1291 11.1526 10.9888 10.85 10.9888 10.5C10.9888 10.1354 11.1291 9.82917 11.4096 9.58125C11.6902 9.33333 12.0229 9.20937 12.4076 9.20937C12.8085 9.20937 13.1451 9.33333 13.4177 9.58125C13.6902 9.82917 13.8265 10.1281 13.8265 10.4781C13.8265 10.8427 13.6902 11.1526 13.4177 11.4078C13.1451 11.663 12.8165 11.7906 12.4317 11.7906V11.7906ZM12.4317 5.35937C12.0309 5.35937 11.6902 5.23177 11.4096 4.97656C11.1291 4.72135 10.9888 4.41146 10.9888 4.04687C10.9888 3.68229 11.1291 3.3724 11.4096 3.11719C11.6902 2.86198 12.0229 2.73438 12.4076 2.73438C12.8085 2.73438 13.1451 2.86198 13.4177 3.11719C13.6902 3.3724 13.8265 3.68229 13.8265 4.04687C13.8265 4.41146 13.6902 4.72135 13.4177 4.97656C13.1451 5.23177 12.8165 5.35937 12.4317 5.35937V5.35937Z" fill="#CECECE"/>
</svg>
