<svg width="36" height="36" viewBox="0 0 36 36" fill="none" xmlns="http://www.w3.org/2000/svg">
<path d="M29.4722 31L20.3403 21.8681C19.6458 22.4699 18.8356 22.9387 17.9097 23.2743C16.9838 23.61 16 23.7778 14.9583 23.7778C12.4583 23.7778 10.3403 22.9097 8.60417 21.1736C6.86806 19.4375 6 17.3426 6 14.8889C6 12.4352 6.86806 10.3403 8.60417 8.60417C10.3403 6.86806 12.4468 6 14.9236 6C17.3773 6 19.4664 6.86806 21.191 8.60417C22.9155 10.3403 23.7778 12.4352 23.7778 14.8889C23.7778 15.8843 23.6157 16.8449 23.2917 17.7708C22.9676 18.6968 22.4815 19.5648 21.8333 20.375L31 29.4722L29.4722 31ZM14.9236 21.6944C16.7986 21.6944 18.3958 21.0289 19.7153 19.6979C21.0347 18.3669 21.6944 16.7639 21.6944 14.8889C21.6944 13.0139 21.0347 11.4109 19.7153 10.0799C18.3958 8.74884 16.7986 8.08333 14.9236 8.08333C13.0255 8.08333 11.4109 8.74884 10.0799 10.0799C8.74884 11.4109 8.08333 13.0139 8.08333 14.8889C8.08333 16.7639 8.74884 18.3669 10.0799 19.6979C11.4109 21.0289 13.0255 21.6944 14.9236 21.6944Z" fill="#8B8B8B"/>
</svg>
